<?xml version="1.0" encoding="utf-8"?>
<!-- Generator: Adobe Illustrator 23.0.3, SVG Export Plug-In . SVG Version: 6.00 Build 0)  -->
<svg version="1.1" id="Capa_1" xmlns="http://www.w3.org/2000/svg" xmlns:xlink="http://www.w3.org/1999/xlink" x="0px" y="0px"
	 viewBox="0 0 244.16 221.35" style="enable-background:new 0 0 244.16 221.35;" xml:space="preserve">
<style type="text/css">
	.st0{fill:#030202;}
	.st1{fill:#FB4926;}
	.st2{fill:#FAFAFA;}
	.st3{fill:#F9F9F9;}
	.st4{fill:#FAFAF9;}
	.st5{fill:#F5F5F5;}
</style>
<g>
	<g>
		<path class="st0" d="M136.28,221.35c-10-0.06-20.01-0.12-30.01-0.17c-22.08-3.27-41.97-11.6-59.18-25.92
			C-18.12,140.99-1.46,40.09,77.92,8.39c47.15-18.83,102.13-5.43,133.91,32.64c40.06,47.99,32.58,117.21-16.82,156.07
			C177.7,210.72,157.96,218.36,136.28,221.35z M79.31,144.7c-0.57,2.66-1.14,5.33-1.72,7.99c-2.61,12.07-0.66,24.14,0.1,36.2
			c0.08,1.3,0.94,2.56,1.44,3.84c1.09-0.9,2.46-1.6,3.21-2.72c5.94-8.78,11.77-17.64,17.63-26.48c2.79-4.21,2.42-11.41-1.04-16.18
			c-2.55,3.42-5.05,6.75-7.88,10.55c-3.29-4.15-6.1-7.78-9.05-11.31c-0.68-0.81-1.83-1.23-2.76-1.83c0.27-0.87,0.54-1.74,0.81-2.62
			c2.72,2.69,5.54,5.28,8.13,8.09c2.11,2.29,3.73,2.59,5.52-0.3c3.29-5.29,6.77-10.45,10.05-15.74c2.3-3.71,1.7-4.41-2.44-5.38
			c-6.15-1.43-12.18-3.34-18.27-5.05c0.05-1.62,0.03-3.25,0.16-4.86c1.13-14.11-4.28-25.09-15.88-33.04
			c-2.67-1.83-5.45-3.64-8.42-4.84c-12.76-5.12-21.25-14.04-25.44-27.18C32.6,51.1,33,49.52,35.78,48.7c3.11-0.91,6.21-1.9,9.35-2.7
			c21.29-5.42,42.86-8.82,64.87-7.12c9.26,0.72,17.81,0.08,25.7-5.23c1.66-1.12,3.77-1.55,5.92-2.4c0.9,2.84,1.65,5.18,2.43,7.65
			c0.92-0.14,1.65-0.19,2.35-0.37c6.88-1.81,13.76-3.62,20.63-5.47c3-0.81,4.37-0.03,4.37,3.36c-0.01,10.24-2.09,19.91-7.79,28.49
			c-3.46,5.21-3.04,9.93,0.14,14.97c5.93,9.4,11.67,18.92,17.56,28.34c10.25,16.4,14.81,34.23,13.68,53.54
			c-0.59,10.1-1.19,20.2-1.75,30.3c-0.05,0.9,0.12,1.81,0.28,3.89c5.68-5.6,10.65-10.46,15.56-15.36c2.94-2.93,4.3-6.34,3.99-10.68
			c-0.74-10.3-2.52-20.32-6.66-29.82c-5.49-12.58-11.53-24.94-16.49-37.72c-5.34-13.76-6.6-28.14-3.28-42.7
			c1.71-7.49,5.19-13.82,12.45-17.3c1.17-0.56,2.69-0.41,4.05-0.59c-0.26,1.35-0.18,2.9-0.83,4.03c-3.56,6.21-6.83,12.49-7.45,19.81
			c-1.46,17.16,2.53,33.15,11.69,47.52c7.84,12.31,15.71,24.48,20.41,38.69c2.29-6.11,4.49-12.18,5.86-18.43
			c4.73-21.57,2.89-42.59-5.79-63.01c-7.3-17.19-18.24-31.62-32.78-43.19c-15.04-11.96-32.13-19.75-51.09-23.16
			C117.38-0.58,92.7,3,69.37,14.82c-12.25,6.21-22.99,14.53-32.32,24.77c-10.66,11.7-18.73,24.94-23.12,40
			c-12.28,42.1-1.39,78.34,29.18,109.08c3.58,3.6,7.88,6.49,12.08,9.9c1.34-4.7,1.96-8.87,3.68-12.54
			c6.49-13.86,13.34-27.55,20.07-41.3C78.98,144.67,79.19,144.71,79.31,144.7z M130.8,156.45c-1.8-2.72-3.4-4.93-4.77-7.27
			c-1.69-2.88-3.4-2.79-5.55-0.51c-2.83,2.99-5.71,5.95-8.72,8.77c-2.35,2.21-3.37,4.71-3.26,7.97c0.34,9.74,0.43,19.48,0.74,29.22
			c0.04,1.35,0.74,2.68,1.13,4.02c1.25-0.68,2.67-1.17,3.74-2.08c16.07-13.74,26.49-31.27,33.86-50.82c0.68-1.8,1.31-3.62,1.97-5.43
			c-0.25-0.19-0.5-0.38-0.75-0.56C143.23,145.15,137.3,150.55,130.8,156.45z M132.55,149.33c5.11-4.14,9.58-8.15,14.45-11.6
			c5.43-3.84,7.74-8.9,7.42-15.34c-0.05-1.05-0.42-2.09-0.64-3.14c-1.04,0.24-2.22,0.24-3.08,0.77c-7.02,4.29-14.65,6.82-22.69,8.3
			c-8.49,1.56-8.48,1.61-3.64,8.8C127.05,141.12,129.73,145.12,132.55,149.33z M106.9,61.96c3.4-0.09,6.19-2.95,6.11-6.24
			c-0.08-3.34-2.92-5.9-6.44-5.83c-3.47,0.08-6.26,2.87-6.15,6.15C100.54,59.3,103.55,62.05,106.9,61.96z"/>
		<path class="st1" d="M80.06,142.14c-0.27,0.87-0.54,1.74-0.81,2.62l0.06-0.06c-0.12,0.01-0.34-0.03-0.36,0.02
			c-6.73,13.75-13.57,27.44-20.07,41.3c-1.72,3.66-2.34,7.84-3.68,12.54c-4.21-3.41-8.5-6.3-12.08-9.9
			C12.54,157.92,1.66,121.68,13.93,79.58c4.39-15.06,12.46-28.29,23.12-40c9.33-10.24,20.06-18.56,32.32-24.77
			C92.7,3,117.38-0.58,143.16,4.05c18.96,3.41,36.05,11.19,51.09,23.16c14.54,11.57,25.48,26,32.78,43.19
			c8.68,20.42,10.52,41.43,5.79,63.01c-1.37,6.25-3.57,12.32-5.86,18.43c-4.7-14.2-12.57-26.38-20.41-38.69
			c-9.16-14.38-13.14-30.36-11.69-47.52c0.62-7.31,3.88-13.6,7.45-19.81c0.65-1.13,0.57-2.67,0.83-4.03
			c-1.36,0.18-2.88,0.03-4.05,0.59c-7.26,3.48-10.74,9.81-12.45,17.3c-3.32,14.56-2.06,28.94,3.28,42.7
			c4.96,12.78,10.99,25.14,16.49,37.72c4.15,9.5,5.93,19.52,6.66,29.82c0.31,4.34-1.06,7.75-3.99,10.68
			c-4.91,4.91-9.88,9.76-15.56,15.36c-0.16-2.09-0.33-2.99-0.28-3.89c0.56-10.1,1.15-20.2,1.75-30.3
			c1.13-19.3-3.43-37.13-13.68-53.54c-5.89-9.42-11.63-18.94-17.56-28.34c-3.18-5.04-3.6-9.76-0.14-14.97
			c5.69-8.58,7.78-18.26,7.79-28.49c0-3.39-1.37-4.17-4.37-3.36c-6.87,1.86-13.75,3.67-20.63,5.47c-0.7,0.18-1.43,0.23-2.35,0.37
			c-0.79-2.47-1.53-4.81-2.43-7.65c-2.15,0.85-4.26,1.28-5.92,2.4c-7.89,5.31-16.43,5.94-25.7,5.23
			c-22.01-1.7-43.58,1.71-64.87,7.12c-3.14,0.8-6.24,1.79-9.35,2.7c-2.78,0.81-3.18,2.39-2.31,5.14
			c4.19,13.14,12.68,22.06,25.44,27.18c2.98,1.19,5.76,3.01,8.42,4.84c11.6,7.95,17.01,18.93,15.88,33.04
			c-0.13,1.62-0.11,3.24-0.16,4.86C82.06,129.89,81.06,136.02,80.06,142.14z"/>
		<path class="st2" d="M130.8,156.45c6.5-5.9,12.44-11.3,18.38-16.69c0.25,0.19,0.5,0.38,0.75,0.56c-0.65,1.81-1.29,3.63-1.97,5.43
			c-7.37,19.55-17.78,37.08-33.86,50.82c-1.06,0.91-2.48,1.4-3.74,2.08c-0.39-1.34-1.09-2.67-1.13-4.02
			c-0.3-9.74-0.39-19.48-0.74-29.22c-0.12-3.26,0.9-5.76,3.26-7.97c3-2.82,5.88-5.78,8.72-8.77c2.16-2.28,3.86-2.37,5.55,0.51
			C127.39,151.52,128.99,153.73,130.8,156.45z"/>
		<path class="st3" d="M79.25,144.76c0.93,0.6,2.08,1.02,2.76,1.83c2.95,3.52,5.75,7.16,9.05,11.31c2.84-3.8,5.33-7.13,7.88-10.55
			c3.46,4.78,3.83,11.97,1.04,16.18c-5.86,8.84-11.69,17.7-17.63,26.48c-0.76,1.12-2.13,1.82-3.21,2.72
			c-0.5-1.28-1.36-2.53-1.44-3.84c-0.75-12.06-2.71-24.13-0.1-36.2c0.58-2.66,1.15-5.33,1.72-7.99
			C79.31,144.7,79.25,144.76,79.25,144.76z"/>
		<path class="st3" d="M132.55,149.33c-2.82-4.21-5.5-8.21-8.19-12.21c-4.84-7.19-4.85-7.24,3.64-8.8
			c8.04-1.48,15.67-4.01,22.69-8.3c0.86-0.53,2.05-0.53,3.08-0.77c0.22,1.05,0.58,2.08,0.64,3.14c0.32,6.45-1.99,11.5-7.42,15.34
			C142.13,141.18,137.66,145.2,132.55,149.33z"/>
		<path class="st4" d="M80.06,142.14c1-6.13,2-12.25,2.99-18.38c6.08,1.71,12.12,3.61,18.27,5.05c4.14,0.97,4.74,1.67,2.44,5.38
			c-3.28,5.29-6.76,10.45-10.05,15.74c-1.8,2.89-3.42,2.59-5.52,0.3C85.6,147.42,82.78,144.83,80.06,142.14z"/>
		<path class="st5" d="M106.9,61.96c-3.35,0.09-6.36-2.66-6.48-5.91c-0.11-3.28,2.68-6.07,6.15-6.15c3.52-0.08,6.35,2.49,6.44,5.83
			C113.1,59.01,110.3,61.87,106.9,61.96z"/>
	</g>
</g>
</svg>
